<?xml version="1.0" encoding="iso-8859-1"?>
<!-- Uploaded to: SVG Repo, www.svgrepo.com, Generator: SVG Repo Mixer Tools -->
<svg fill="#fff" height="24px" width="24px" version="1.1" xmlns="http://www.w3.org/2000/svg" xmlns:xlink="http://www.w3.org/1999/xlink" viewBox="0 0 511.271 511.271" xml:space="preserve">
  <path d="M508.342,94.243c-2.603-2.603-6.942-3.471-10.414-2.603l-17.356,6.075c10.414-12.149,17.356-25.166,21.695-37.315
    c1.736-4.339,0.868-7.81-1.736-10.414c-2.603-2.603-6.942-3.471-10.414-1.736c-24.298,10.414-45.125,19.092-62.481,24.298
    c0,0.868-0.868,0-1.736,0c-13.885-7.81-47.729-25.166-72.027-25.166c-61.614,0.868-111.078,52.936-111.078,116.285v3.471
    c-90.251-17.356-139.715-43.39-193.519-99.797L40.6,58.663l-5.207,10.414c-29.505,56.407-8.678,107.607,25.166,142.319
    c-15.62-2.603-26.034-7.81-35.58-15.62c-3.471-2.603-7.81-3.471-12.149-0.868c-3.471,1.736-5.207,6.942-4.339,11.281
    c12.149,40.786,42.522,73.763,75.498,93.722c-15.62,0-28.637-1.736-41.654-10.414c-3.471-1.736-8.678-1.736-12.149,0.868
    s-5.207,6.942-3.471,11.281c15.62,44.258,45.993,67.688,94.59,73.763c-25.166,14.753-58.142,26.902-109.342,27.77
    c-5.207,0-9.546,3.471-11.281,7.81c-1.736,5.207,0,9.546,3.471,13.017c31.241,25.166,100.664,39.919,186.576,39.919
    c152.732,0,277.695-136.244,277.695-303.729v-2.603c19.092-9.546,34.712-27.77,42.522-52.936
    C511.813,101.185,510.945,96.846,508.342,94.243z"/>
</svg>
